<svg width="117" height="145" viewBox="0 0 117 145" fill="none" xmlns="http://www.w3.org/2000/svg">
<g id="Frame" clip-path="url(#clip0_4764_4008)">
<g id="Group">
<g id="Group_2">
<path id="Vector" d="M35.3673 50.8684C35.5014 50.7437 35.6355 50.7438 35.7696 50.7438C35.9037 50.7438 36.1719 50.6191 36.306 50.6191C37.1107 50.4944 38.0494 50.245 38.9881 50.1204C39.5245 49.9957 39.9268 49.871 40.4633 49.871C40.7315 49.871 40.8656 49.7463 41.1338 49.7463C41.402 49.7463 41.5361 49.6216 41.8043 49.6216C41.9384 49.6216 42.2066 49.497 42.3407 49.497C42.4748 49.497 42.743 49.497 42.8771 49.497C43.1453 49.497 43.2794 49.497 43.2794 49.497C43.2794 49.497 43.2794 49.3723 43.1453 49.1229C43.0112 48.9983 43.0112 48.8736 42.743 48.7489C42.6089 48.6242 42.3407 48.4996 42.2066 48.2502C41.8043 48.0008 41.1338 47.7515 40.4633 47.6268C39.7927 47.5021 39.1222 47.6268 38.4517 47.7515C37.7812 47.8762 37.1106 48.1255 36.5742 48.4996C36.0378 48.7489 35.6355 49.2476 35.2332 49.6216C34.965 49.9957 34.6968 50.4944 34.6968 50.7438C34.6968 50.9931 34.6968 51.2425 34.6968 51.2425C34.6968 51.2425 35.0991 50.9931 35.3673 50.8684Z" fill="#5B36D3"/>
<path id="Vector_2" d="M68.2225 88.3964H49.1797C51.9959 92.8848 65.4063 93.7576 68.2225 88.3964Z" fill="#5B36D3"/>
<path id="Vector_3" d="M70.5023 49.871C70.6365 49.871 70.9047 49.871 71.0388 49.9957C71.1729 49.9957 71.4411 50.1204 71.5752 50.1204C71.8434 50.1204 71.9775 50.2451 72.2457 50.2451C72.5139 50.2451 72.648 50.2451 72.9162 50.3698C73.1844 50.3698 73.3185 50.3698 73.5867 50.4944C73.8549 50.4944 73.9891 50.6191 74.2573 50.6191C74.5255 50.6191 74.6596 50.7438 74.9278 50.7438C75.196 50.7438 75.3301 50.7438 75.5983 50.8685C75.7324 50.8685 76.0006 50.9931 76.2688 50.9931C76.537 50.9931 76.6711 50.9931 76.8052 51.1178C76.9393 51.1178 77.0734 51.2425 77.2076 51.2425C77.4758 51.3672 77.6099 51.3672 77.6099 51.3672C77.6099 51.3672 77.6099 51.2425 77.6099 50.9931C77.6099 50.8685 77.4758 50.7438 77.4758 50.4944C77.4758 50.2451 77.3417 50.1204 77.2076 49.871C77.0734 49.6217 76.9393 49.497 76.6711 49.2477C76.4029 48.9983 76.1347 48.8736 75.8665 48.749C75.5983 48.6243 75.3301 48.3749 74.9278 48.3749C74.6596 48.2502 74.2573 48.2502 73.9891 48.1256C73.3185 48.1256 72.648 48.0009 71.9775 48.2502C71.7093 48.3749 71.4411 48.3749 71.1729 48.4996C70.9047 48.6243 70.6364 48.749 70.3682 48.8736C69.9659 49.123 69.6977 49.497 69.5636 49.6217C69.4295 49.871 69.2954 49.9957 69.2954 49.9957C69.2954 49.9957 69.4295 49.9957 69.8318 49.9957C70.1 49.871 70.2341 49.871 70.5023 49.871Z" fill="#5B36D3"/>
<path id="Vector_4" d="M41.402 66.8272C39.9268 66.8272 38.854 68.074 38.854 69.6948C38.854 71.3156 40.0609 72.5623 41.402 72.5623C42.8771 72.5623 43.95 71.3156 43.95 69.6948C43.95 68.1986 42.743 66.8272 41.402 66.8272Z" fill="#5B36D3"/>
<path id="Vector_5" d="M73.0504 66.8272C71.5753 66.8272 70.5024 68.074 70.5024 69.6948C70.5024 71.3156 71.7094 72.5623 73.0504 72.5623C74.5256 72.5623 75.5984 71.3156 75.5984 69.6948C75.5984 68.1986 74.5256 66.8272 73.0504 66.8272Z" fill="#5B36D3"/>
<path id="Vector_6" d="M109.258 27.8031C108.186 26.4317 106.979 25.1849 105.772 23.9381C109.661 25.4342 112.611 27.6784 116.366 29.4239C111.806 19.6991 97.4572 14.9613 86.4607 13.5899C86.3266 13.4652 86.0584 13.4652 85.9243 13.3405C90.8861 12.4678 95.9821 13.5899 100.676 14.5873C85.9243 3.3663 60.7127 4.11436 41.67 8.47808C40.3289 6.23388 40.3289 1.87016 41.5358 0C38.5856 1.37145 37.6468 5.36114 39.122 8.10405C34.9647 6.23388 31.2098 3.11694 30.9416 0.124678C30.0029 3.3663 29.6006 6.23388 32.1486 9.10147C28.6619 8.85211 24.9069 5.36114 23.0295 2.74291C23.0295 6.23388 21.6884 8.60276 24.6387 11.4703C25.3093 12.0937 26.5162 12.7171 27.8572 13.3405C19.4087 17.9536 9.61908 27.0551 6.26648 35.1591C7.33931 34.5357 10.1555 33.5383 12.033 32.6655C4.92543 40.3956 0.5 50.3698 0.5 60.5933C2.37746 57.3517 3.8526 51.8659 6.66879 48.9983C4.52312 52.988 5.19364 59.3466 7.2052 65.3311C7.2052 65.4558 7.2052 65.4558 7.33931 65.5804C8.54624 69.0714 10.1555 72.313 11.8988 75.056C12.3012 75.6793 13.1058 77.6742 14.0445 78.5469C10.0214 78.7963 6.937 81.2898 8.00983 85.6535C9.08266 90.516 15.1173 93.3836 20.0792 92.8849C20.7497 93.7576 21.4202 94.6303 22.0908 95.3784C25.041 100.366 28.6619 104.48 35.7694 107.597C40.463 109.592 45.8272 110.838 51.4595 111.462C51.4595 111.836 51.4595 112.21 51.4595 112.459C50.9231 112.584 50.5208 112.709 49.9844 112.833C49.7162 112.833 49.3139 112.833 49.448 112.958C47.3023 113.706 45.4249 114.703 43.8156 115.95C41.9382 117.446 40.1948 119.317 38.8538 121.436C38.8538 121.436 38.8538 121.561 38.7197 121.685C27.589 122.558 26.9185 132.782 24.9069 141.135C24.3705 143.504 47.7046 144.501 48.241 144.501C48.241 144.501 48.3752 144.501 48.5093 144.501C55.6168 144.751 62.5902 144.875 69.6977 144.626C69.6977 144.626 69.8318 144.626 69.9659 144.626C74.5254 144.501 79.085 144.377 83.6445 143.753C85.6561 143.504 90.752 143.379 92.2272 141.758C92.7636 141.135 91.8249 138.891 91.6908 138.143C91.2885 136.148 90.8861 134.153 90.3497 132.158C89.2769 128.293 87.3994 124.678 83.3763 122.683C83.3763 122.683 83.3763 122.683 83.2422 122.683C81.7671 122.184 80.2919 121.935 78.6827 121.81C78.6827 121.685 78.6827 121.685 78.6827 121.561C75.5983 117.072 71.4411 113.581 65.8087 112.459C65.8087 112.21 65.8087 111.836 65.8087 111.587C71.5752 110.963 77.2075 109.716 82.0353 107.597C90.0815 104.106 93.5682 99.3681 96.7867 93.3836C97.189 93.1342 97.5913 93.0095 97.9937 93.0095C99.2006 93.1342 100.408 92.8849 101.48 92.6355C104.431 91.8874 106.979 89.7679 108.454 87.2744C110.868 82.9106 108.454 78.921 104.028 78.5469L104.431 78.4222C108.99 71.3156 110.063 68.1987 111.404 62.0895C112.611 63.5856 112.745 65.8298 113.55 67.7C116.366 58.5985 115.427 48.9983 110.197 43.2631C113.416 43.8865 116.098 46.3801 116.098 46.3801C114.354 39.6475 113.818 33.663 109.258 27.8031ZM24.2364 47.1282C24.2364 48.6243 24.2364 50.1204 24.2364 51.8659C29.1983 45.7567 31.478 35.2838 32.685 28.0525C35.9035 31.2941 40.8653 37.0293 46.0954 36.5306C43.5474 33.663 39.5243 30.6707 40.0607 26.5563C42.3405 31.5434 49.1798 37.0293 54.8121 38.5254C54.4098 35.5331 53.6052 32.1668 54.1416 29.1746C59.1035 35.5331 67.6861 41.1436 76.1347 42.6398C74.7937 39.7722 72.3798 36.5306 72.648 33.5383C77.6098 41.6423 84.8515 47.1282 94.2387 50.6191C95.1775 48.6243 94.507 48.6243 95.5798 43.1385C95.7139 48.2503 97.5914 53.362 98.2619 58.4738C98.5301 60.0946 98.7983 61.8401 98.9324 63.4609C98.9324 66.8272 98.7983 69.9442 98.6642 72.313L94.2387 67.8246V66.5779H92.4954C91.4226 60.0946 85.3879 55.1075 78.0122 55.1075C70.5023 55.1075 64.1994 60.4687 63.5289 67.2013C62.1879 66.0792 60.8468 65.4558 59.3717 65.4558C59.1035 65.4558 58.8353 65.4558 58.5671 65.4558C58.5671 65.3311 58.5671 65.2064 58.5671 65.0817C58.5671 64.7077 57.226 64.7077 57.226 65.0817C57.226 65.3311 57.226 65.4558 57.226 65.7051C56.0191 66.0792 54.9463 66.7025 54.1416 67.3259C53.4711 60.4687 47.1682 54.9828 39.5243 54.9828C32.1486 54.9828 26.1139 59.97 25.041 66.4532H23.2977V67.7L18.4699 72.4377C18.4699 71.8143 18.3358 71.1909 18.3358 70.4429C19.6769 60.5933 22.4931 53.8607 24.2364 47.1282ZM91.4226 68.6974C91.4226 75.5547 85.3879 81.0405 78.0122 81.0405C70.6364 81.0405 64.6017 75.43 64.6017 68.6974C64.6017 61.8401 70.6364 56.3543 78.0122 56.3543C85.522 56.2296 91.4226 61.8401 91.4226 68.6974ZM52.9347 68.6974C52.9347 75.5547 46.9 81.0405 39.5243 81.0405C32.1486 81.0405 26.1139 75.43 26.1139 68.6974C26.1139 61.8401 32.1486 56.3543 39.5243 56.3543C47.0341 56.2296 52.9347 61.8401 52.9347 68.6974ZM19.9451 92.3861C14.9832 93.2589 10.5578 89.8926 9.21676 85.7782C7.87572 81.7885 11.2283 79.0456 15.2514 79.0456C15.3856 79.669 15.5197 80.4171 15.7879 81.1652C16.0561 82.5366 16.4584 83.9081 16.9948 85.1548C15.6538 83.534 13.7763 82.6613 11.2283 83.4094C10.4237 83.6587 11.4965 83.9081 11.8988 83.7834C15.2514 82.786 16.8607 86.651 17.5312 88.8952C17.6653 89.1445 18.2017 89.1445 18.604 89.0199C18.7382 89.1445 18.7382 89.2692 18.8723 89.5186C19.4087 90.516 19.811 91.3887 20.3474 92.3861C20.0792 92.3861 19.9451 92.3861 19.9451 92.3861ZM51.1913 113.207C51.1913 113.581 51.0572 113.955 51.0572 114.08C51.0572 114.329 51.0572 114.579 50.9231 114.703C50.789 114.703 50.789 114.828 50.6549 114.828C50.5208 114.329 50.5208 113.831 50.3867 113.332C50.6549 113.332 50.9231 113.332 51.1913 113.207ZM49.8503 116.449C49.9844 116.698 50.1185 117.072 50.2526 117.322C49.7162 118.568 48.7775 119.691 47.5705 120.563L47.4364 120.688C46.9 120.937 46.4977 121.187 45.9613 121.311C45.8272 120.813 45.6931 120.314 45.559 119.815C46.9 118.568 48.2411 117.446 49.8503 116.449ZM56.0191 124.927C56.2873 124.927 56.4214 124.927 56.6896 124.927C57.4942 124.927 58.1647 124.927 58.9694 124.927C62.4561 124.927 65.9428 124.678 69.0272 123.431H69.1613C68.759 124.304 68.759 125.426 68.6249 126.548C67.9543 131.784 68.2226 136.896 68.3567 142.133C68.3567 142.257 68.3567 142.257 68.3567 142.382C68.3567 144.501 66.7474 144.377 64.7359 144.377C62.9925 144.377 61.115 144.377 59.3717 144.377C55.6168 144.377 51.996 144.252 48.241 144.127C48.3752 140.387 48.5093 136.647 48.5093 132.906C48.5093 130.163 48.7775 126.298 47.5705 123.556C49.9844 124.428 52.6665 124.802 55.2145 124.927C55.4827 124.927 55.7509 124.927 56.0191 124.927ZM43.4133 125.8C44.4861 125.924 45.6931 125.924 46.7659 125.924C46.7659 126.174 46.7659 126.298 46.7659 126.548C46.9 127.545 47.0341 128.543 47.0341 129.54C45.8272 129.54 44.6202 129.54 43.4133 129.54C43.4133 128.293 43.4133 127.047 43.4133 125.8ZM46.6318 125.301C45.6931 125.301 44.6202 125.176 43.6815 125.176C44.2179 124.304 44.8884 123.431 45.4249 122.433C46.2295 123.431 46.4977 124.179 46.6318 125.301ZM43.4133 130.039C44.6202 130.039 45.8272 130.039 47.0341 130.039C47.0341 131.036 47.1682 132.034 47.1682 133.031C47.1682 133.53 47.1682 134.028 47.1682 134.652C45.9613 134.777 44.6202 134.901 43.2792 134.901C43.5474 133.28 43.5474 131.66 43.4133 130.039ZM47.3023 135.275C47.3023 136.273 47.3023 137.145 47.1682 138.018C47.1682 138.642 47.1682 139.14 47.1682 139.764V139.888C47.0341 139.888 46.9 139.764 46.7659 139.764C45.559 139.764 44.2179 139.764 42.8769 139.764C43.011 138.392 43.1451 137.021 43.2792 135.649C43.2792 135.525 43.2792 135.525 43.2792 135.4C44.7543 135.525 45.9613 135.4 47.3023 135.275ZM69.5636 139.639C69.5636 138.268 69.5636 136.896 69.4295 135.525C69.4295 135.4 69.4295 135.151 69.4295 135.026C70.7705 135.026 72.1116 135.026 73.3185 135.026C73.4526 136.522 73.5867 138.143 73.5867 139.639C72.3798 139.639 71.0387 139.639 69.5636 139.639ZM69.5636 134.403C69.5636 133.031 69.5636 131.535 69.6977 130.163C70.7705 130.288 71.9775 130.288 73.1844 130.288C73.3185 131.66 73.3185 133.031 73.4526 134.403C72.1116 134.403 70.7705 134.403 69.5636 134.403ZM69.6977 129.665C69.8318 128.667 69.8318 127.795 69.9659 126.797C69.9659 126.174 70.1 125.55 70.1 124.927C71.0387 124.927 71.9775 124.927 72.9162 124.802C72.9162 126.423 72.9162 128.169 73.0503 129.789C71.9775 129.789 70.7705 129.665 69.6977 129.665ZM70.2341 124.304C70.3682 123.805 70.6364 123.182 71.0387 122.683C71.1728 122.558 71.3069 122.558 71.3069 122.433C71.5752 122.807 71.7093 123.182 71.9775 123.431C71.9775 123.556 71.9775 123.556 72.1116 123.556C72.2457 123.68 72.3798 123.93 72.5139 124.054C71.8434 124.179 71.0387 124.304 70.2341 124.304ZM49.3139 113.831C49.448 114.329 49.448 114.953 49.5821 115.452C47.9728 116.324 46.4977 117.322 45.1567 118.444C45.0226 117.82 44.8885 117.072 44.6202 116.449C44.6202 116.449 44.6202 116.324 44.4861 116.324C46.0954 115.327 47.5705 114.454 49.3139 113.831ZM44.7543 121.436C44.6202 121.436 44.6202 121.436 44.4861 121.561C43.2792 123.431 41.9382 125.301 40.7312 127.171C40.5971 126.548 40.463 125.8 40.3289 125.176C40.3289 125.176 40.463 125.176 40.463 125.052C41.8041 123.556 43.011 122.059 44.4861 120.563C44.6202 120.937 44.6202 121.187 44.7543 121.436ZM42.8769 118.07C43.1451 117.82 43.4133 117.571 43.6815 117.197C43.8156 117.945 44.0838 118.693 44.2179 119.441C42.7428 120.813 41.4017 122.309 40.1948 123.805C40.0607 123.431 40.0607 122.932 39.9266 122.558C39.6584 120.937 41.9382 119.067 42.8769 118.07ZM39.7925 128.917C39.7925 129.041 40.0607 129.166 40.463 129.291C40.7312 129.415 40.9994 129.291 41.1335 129.166C41.5358 128.667 41.8041 128.169 42.2064 127.67C42.2064 128.293 42.2064 128.917 42.2064 129.54C40.5971 129.54 38.8538 129.54 37.2445 129.415C37.3786 128.044 37.3786 126.673 37.3786 125.301C38.0491 125.301 38.5856 125.426 39.2561 125.426C39.3902 126.548 39.5243 127.795 39.7925 128.917ZM38.4515 122.558C38.5856 123.306 38.8538 124.304 38.9879 124.553C38.9879 124.678 38.9879 124.678 38.9879 124.802C38.4515 124.802 37.7809 124.678 37.2445 124.678C37.2445 124.054 37.1104 123.431 37.1104 122.807C37.5127 122.683 38.0491 122.558 38.4515 122.558ZM35.9035 123.057C35.9035 123.556 36.0376 124.054 36.0376 124.553C35.233 124.428 34.2942 124.304 33.4896 124.304C34.026 123.805 34.9647 123.431 35.9035 123.057ZM27.9913 142.257C27.3208 142.133 26.6503 142.008 25.9798 141.758C25.8457 141.634 26.3821 139.39 26.3821 139.14C26.5162 138.766 26.5162 138.392 26.6503 137.893C27.1867 138.018 27.589 138.268 28.1254 138.392C28.1254 139.639 27.9913 141.01 27.9913 142.257ZM28.2595 137.893C27.7231 137.769 27.3208 137.519 26.9185 137.395C27.1867 135.899 27.589 134.278 27.9913 132.782C28.2595 132.906 28.5278 132.906 28.796 133.031C28.5278 134.652 28.3936 136.273 28.2595 137.893ZM28.6619 132.532C28.3936 132.408 28.2595 132.408 27.9913 132.283C28.2595 131.535 28.5278 130.787 28.796 130.039C28.796 130.912 28.6619 131.66 28.6619 132.532ZM29.3324 142.507C29.3324 141.26 29.3324 140.013 29.4665 138.766C31.2098 139.265 32.9532 139.514 34.8306 139.764C34.8306 140.886 34.8306 142.008 34.8306 143.255C32.9532 143.13 31.2098 142.881 29.3324 142.507ZM34.8306 139.265C32.9532 139.016 31.2098 138.766 29.4665 138.268C29.6006 136.647 29.7347 135.026 29.8688 133.405C31.6121 133.904 33.3555 134.403 35.233 134.652C35.0989 136.273 34.9647 137.769 34.8306 139.265ZM35.3671 134.278C33.4896 133.904 31.7462 133.53 30.0029 133.031C30.137 131.66 30.137 130.288 30.137 129.041C32.0145 129.54 33.8919 129.789 35.9035 129.914C35.6353 131.286 35.5012 132.782 35.3671 134.278ZM35.7694 129.291C33.7578 129.166 31.8804 128.792 30.0029 128.418C30.0029 128.169 30.0029 127.919 30.0029 127.67C30.6734 126.548 31.6121 125.55 32.5509 124.802C33.6237 124.927 34.8306 125.052 35.9035 125.176C36.0376 126.548 35.9035 127.919 35.7694 129.291ZM41.4017 143.753C39.6584 143.629 37.915 143.504 36.1717 143.379C36.0376 142.257 36.0376 141.135 36.1717 139.888C37.915 140.013 39.7925 140.138 41.5358 140.262C41.4017 141.509 41.4017 142.631 41.4017 143.753ZM42.0723 135.525C41.9382 136.896 41.8041 138.392 41.67 139.764C39.7925 139.764 38.0491 139.639 36.1717 139.514C36.3058 138.018 36.4399 136.522 36.574 135.026C38.3173 135.275 40.1948 135.4 42.0723 135.525ZM42.0723 134.901C40.3289 134.901 38.4515 134.652 36.574 134.403C36.7081 132.906 36.9763 131.41 37.1104 129.789C38.7197 129.914 40.463 129.914 42.0723 129.914C42.0723 131.66 42.2064 133.28 42.0723 134.901ZM44.7543 144.003C44.0838 144.003 43.4133 143.878 42.7428 143.878C42.7428 142.756 42.7428 141.509 42.8769 140.387C44.352 140.387 45.6931 140.387 47.1682 140.387C47.1682 141.135 47.1682 141.883 47.0341 142.631C46.9 143.504 46.3636 144.127 44.7543 144.003ZM73.8549 144.127C72.5139 144.127 71.1728 144.252 69.6977 144.252C69.6977 142.881 69.6977 141.509 69.5636 140.138C70.9046 140.138 72.3798 140.138 73.7208 140.138C73.8549 141.509 73.8549 142.881 73.8549 144.127ZM90.3497 141.758C89.5451 142.257 88.4723 142.631 87.2653 142.756C87.1312 141.509 87.1312 140.138 86.9971 138.891C88.07 138.766 89.1428 138.517 90.2156 138.268C90.6179 140.013 90.752 141.509 90.3497 141.758ZM90.0815 137.644C89.0087 137.893 88.07 138.018 86.9971 138.268C86.863 136.647 86.7289 135.151 86.5948 133.53C87.3994 133.405 88.07 133.28 88.8746 133.031C89.2769 134.278 89.8133 136.023 90.0815 137.644ZM88.4723 131.66C88.4723 131.784 88.6064 132.034 88.7405 132.408C88.07 132.532 87.2653 132.657 86.5948 132.906C86.4607 131.286 86.3266 129.665 86.3266 128.044C86.4607 127.919 86.7289 127.919 86.863 127.795C87.5335 128.917 88.07 130.288 88.4723 131.66ZM86.4607 127.171C86.3266 127.171 86.3266 127.171 86.1925 127.296C86.1925 127.171 86.1925 126.922 86.1925 126.797C86.3266 126.922 86.3266 127.047 86.4607 127.171ZM86.1925 143.005C84.7174 143.255 83.2422 143.379 82.0353 143.504C81.9012 143.504 81.633 143.504 81.4989 143.629C81.3648 142.382 81.3648 141.01 81.2307 139.764C82.8399 139.639 84.315 139.39 85.9243 139.14C86.0584 140.387 86.0584 141.758 86.1925 143.005ZM85.7902 138.517C84.1809 138.766 82.7058 139.016 81.0965 139.14C80.9624 137.519 80.9624 136.023 80.8283 134.403C82.3035 134.278 83.7786 134.028 85.2538 133.779C85.522 135.4 85.6561 136.896 85.7902 138.517ZM85.3879 133.031C83.9127 133.28 82.4376 133.53 80.9624 133.654C80.8283 132.283 80.8283 130.787 80.6942 129.415C82.1694 129.166 83.6445 128.792 84.9856 128.293C85.1197 129.914 85.2538 131.535 85.3879 133.031ZM83.2422 123.805C83.9127 124.179 84.4492 124.678 84.9856 125.301C84.9856 126.174 84.9856 126.922 84.9856 127.795C83.5104 128.293 82.1694 128.667 80.6942 129.041C80.5601 127.545 80.426 125.924 80.2919 124.428C81.2307 124.304 82.3035 124.054 83.2422 123.805ZM82.0353 123.182C82.0353 123.182 82.1694 123.182 82.1694 123.306C81.4989 123.431 80.8283 123.556 80.1578 123.68C80.1578 123.306 80.1578 123.057 80.0237 122.683C80.6942 122.807 81.3648 122.932 82.0353 123.182ZM80.1578 143.753C78.5486 143.878 76.8052 144.127 75.196 144.127C75.196 142.756 75.196 141.509 75.196 140.138C76.8052 140.013 78.4145 140.013 80.0237 139.888C80.0237 141.135 80.0237 142.382 80.1578 143.753ZM79.8896 139.265C78.2804 139.39 76.6711 139.514 75.0619 139.639C74.9278 138.143 74.9278 136.522 74.7937 135.026C76.4029 134.901 78.0122 134.777 79.6214 134.652C79.7555 136.148 79.7555 137.644 79.8896 139.265ZM79.6214 133.904C78.0122 134.028 76.4029 134.153 74.7937 134.278C74.6596 132.906 74.5255 131.535 74.5255 130.163C76.1347 130.039 77.8781 129.914 79.4873 129.665C79.4873 131.161 79.4873 132.532 79.6214 133.904ZM78.2804 122.433C78.4145 122.433 78.5486 122.433 78.6827 122.433C78.6827 122.932 78.8168 123.306 78.8168 123.805C78.5486 123.805 78.2804 123.805 77.8781 123.805C78.1463 123.431 78.2804 122.932 78.2804 122.433ZM77.0734 129.041C77.3416 127.67 77.6098 126.174 77.8781 124.802C77.8781 124.802 77.8781 124.678 77.8781 124.553C78.2804 124.553 78.6827 124.553 79.085 124.428C79.2191 126.049 79.3532 127.545 79.4873 129.166C77.8781 129.415 76.1347 129.665 74.5255 129.665C74.5255 128.667 74.3913 127.795 74.3913 126.797C74.9278 127.545 75.3301 128.169 75.8665 128.917C75.8665 129.166 76.9393 129.415 77.0734 129.041ZM75.0619 118.942C75.8665 119.815 76.6711 120.813 76.8052 121.685C76.1347 121.062 75.4642 120.439 74.7937 119.815C74.9278 119.566 74.9278 119.317 75.0619 118.942ZM74.3913 120.937C75.196 121.685 76.0006 122.433 76.6711 123.306C76.4029 124.678 76.1347 125.924 76.0006 127.296C75.196 125.924 74.3913 124.678 73.4526 123.306C73.8549 122.558 74.1231 121.81 74.3913 120.937ZM68.6249 114.329C70.2341 115.077 71.7093 116.075 73.1844 117.322C73.4526 117.571 73.7208 117.82 74.1231 118.07C73.989 118.07 73.8549 118.194 73.8549 118.319C73.8549 118.568 73.7208 118.818 73.7208 119.192C72.1116 118.07 70.3682 117.197 68.6249 116.574C68.6249 115.701 68.6249 115.077 68.6249 114.329ZM68.4908 117.197C70.2341 117.945 71.9775 118.942 73.4526 120.065C73.1844 120.813 72.9162 121.561 72.648 122.184C72.5139 122.059 72.3798 121.935 72.3798 121.81C72.3798 121.81 72.3798 121.685 72.2457 121.685C72.2457 121.561 71.9775 121.436 71.7093 121.436H71.5752C71.0387 121.311 70.3682 120.937 69.6977 120.937C69.0272 120.563 68.4908 120.189 68.0885 119.815C68.2226 118.942 68.3567 118.07 68.4908 117.197ZM67.4179 113.831L67.2838 113.955C67.2838 114.703 67.2838 115.327 67.1497 115.95C66.6133 115.826 66.211 115.576 65.6746 115.452H65.5405C65.4064 114.703 65.2723 113.955 65.2723 113.083C66.0769 113.332 66.7474 113.581 67.4179 113.831ZM67.1497 116.698C67.0156 117.322 67.0156 117.82 66.8815 118.444C66.4792 117.82 66.0769 117.072 65.9428 116.324C66.3451 116.449 66.7474 116.574 67.1497 116.698ZM66.0769 119.192C66.3451 119.441 66.4792 119.691 66.7474 119.94C66.7474 120.065 66.8815 120.065 67.0156 120.189C67.2838 120.439 67.6861 120.688 68.0885 120.937C67.8202 121.062 67.4179 121.187 67.0156 121.311C66.4792 121.436 65.8087 121.561 65.2723 121.685C64.1994 121.81 63.1266 121.935 62.0538 122.059C61.2491 122.184 60.3104 122.184 59.5058 122.184C59.2376 122.184 58.9694 122.184 58.7012 122.184C58.2989 122.184 58.0306 122.184 57.6283 122.184C54.9463 122.059 52.2642 121.81 49.7162 121.062C48.9116 120.563 50.2526 119.94 50.789 119.317C51.5937 118.444 51.8619 117.322 52.1301 116.2C52.3983 115.202 52.8006 113.581 52.6665 111.961C56.4214 112.335 60.3104 112.335 64.0653 112.085C64.0653 113.207 64.1994 114.329 64.3335 115.077C64.4676 116.324 65.0041 118.07 66.0769 119.192ZM92.4954 86.7757C91.2885 88.0224 89.411 89.8926 87.3994 90.0173C84.7174 90.1419 82.5717 86.651 80.5601 85.1548C78.5486 83.534 77.8781 82.6613 73.3185 83.0353C69.2954 83.4094 62.5902 84.0327 60.3104 85.9029L61.5174 86.0276C65.1382 85.6535 71.7093 84.6561 75.3301 85.1548C78.9509 85.6536 78.6827 89.0198 78.9509 90.6407C79.2191 92.8848 80.5601 98.62 76.0006 100.241C74.3913 100.864 67.552 101.737 65.6746 101.612C62.9925 101.488 64.3335 99.6174 62.0538 99.2434C61.7856 99.4928 60.5786 99.9915 60.4445 100.241C60.3104 100.241 60.1763 100.116 60.0422 100.116V99.4928C59.6399 99.4928 59.2376 99.6174 58.7012 99.7421C58.2989 99.6174 57.7624 99.4928 57.3601 99.4928V100.116C57.226 100.116 57.0919 100.241 56.9578 100.241C56.6896 99.9915 55.4827 99.4928 55.3486 99.2434C53.0688 99.4928 54.4098 101.488 51.7278 101.612C49.8503 101.737 43.011 100.864 41.4017 100.241C36.8422 98.62 38.1832 92.8848 38.4515 90.6407C38.7197 89.0198 38.4515 85.6536 42.0723 85.1548C45.6931 84.6561 52.2642 85.6535 55.885 86.0276L57.0919 85.9029C54.8121 84.0327 48.2411 83.4094 44.0838 83.0353C39.5243 82.6613 38.8538 83.4094 36.8422 85.1548C34.8306 86.651 32.685 90.1419 30.0029 90.0173C27.8572 89.8926 25.9798 88.0224 24.9069 86.7757C22.2249 83.9081 20.3474 80.0431 19.4087 76.5521C19.2746 76.0534 19.1405 75.1806 19.0064 74.1832L24.6387 68.6974H25.3093C25.3093 76.178 31.8804 82.2873 39.9266 82.2873C47.8387 82.2873 54.4098 76.3027 54.5439 68.9467C54.9463 68.5727 56.0191 67.7 57.4942 67.0766C57.3601 70.1935 57.3601 73.3105 59.2376 76.0534C60.1763 77.4248 61.7856 78.2976 63.1266 79.295C64.6017 80.2924 63.3948 81.6639 62.5902 82.5366C61.2491 84.1574 59.5058 84.6561 57.0919 84.5315C56.2873 84.5315 56.2873 85.0302 57.0919 85.0302C58.9694 85.1548 60.7127 85.0302 62.322 84.0327C63.3948 83.4094 65.9428 81.2898 65.0041 79.9184C64.4676 79.1703 63.7971 78.6716 63.1266 78.1729C61.5174 77.1755 60.4445 75.9287 59.6399 74.3079C58.5671 71.939 58.7012 69.1961 58.8353 66.5779C59.1035 66.5779 59.3717 66.5779 59.6399 66.5779C61.115 66.5779 62.5902 67.3259 63.7971 68.8221C63.663 76.3027 70.1 82.2873 78.1463 82.2873C86.1925 82.2873 92.7636 76.178 92.7636 68.6974H93.3L98.396 73.9339C98.2619 75.0559 98.1278 75.9287 97.9937 76.5521C97.0549 80.0431 95.1775 83.7834 92.4954 86.7757ZM106.576 87.7731C104.833 90.7653 100.676 92.8848 97.0549 92.5108C97.5913 91.5134 98.1278 90.6407 98.5301 89.6432C98.5301 89.5186 98.6642 89.3939 98.6642 89.2692C98.9324 89.2692 99.0665 89.2692 99.2006 89.1445C100.005 86.7757 101.749 82.9106 105.101 83.9081C105.906 84.1574 106.04 83.6587 105.235 83.4094C103.76 82.9106 102.285 82.9106 100.944 83.7834L100.81 83.9081C101.078 83.0353 101.346 82.0379 101.614 81.1652C101.749 80.6664 101.883 80.1677 102.017 79.669C102.285 79.669 102.687 79.669 102.687 79.4197C102.687 79.295 102.687 79.295 102.687 79.1703C108.454 78.4222 108.454 84.4068 106.576 87.7731Z" fill="#5B36D3"/>
</g>
</g>
</g>
<defs>
<clipPath id="clip0_4764_4008">
<rect width="116" height="145" fill="white" transform="translate(0.5)"/>
</clipPath>
</defs>
</svg>
